# xmcd
#
# Track frame offsets: 
#        150
#        22043
#        42783
#        61857
#        86699
#        106133
#        137484
#        164705
#        183016
#        204966
#        225075
#        246470
#        262330
#        289821
#
# Disc length: 4257 seconds
#
# Revision: 2
# Processed by: cddbd v1.5.2PL0 Copyright (c) Steve Scherf et al.
# Submitted via: ExactAudioCopy v0.99pb4
#
DISCID=bd109f0e
DTITLE=STRATOVARIUS - Nemesis (Japanese Limited Edition)
DYEAR=2013
DGENRE=Heavy Metal
TTITLE0=Abandon
TTITLE1=Unbreakable
TTITLE2=Stand My Ground
TTITLE3=Halcyon Days
TTITLE4=Fantasy
TTITLE5=Out Of The Fog
TTITLE6=Castles In The Air
TTITLE7=Dragons
TTITLE8=Kill It With Fire (Exclusive Bonus Track)
TTITLE9=One Must Fall
TTITLE10=Fireborn (Bonus Track)
TTITLE11=Hunter (Bonus Track)
TTITLE12=If The Story Is Over
TTITLE13=Nemesis
EXTD=
EXTT0=
EXTT1=
EXTT2=
EXTT3=
EXTT4=
EXTT5=
EXTT6=
EXTT7=
EXTT8=
EXTT9=
EXTT10=
EXTT11=
EXTT12=
EXTT13=
PLAYORDER=
